<svg width="24" height="24" viewBox="0 0 24 24" fill="none" xmlns="http://www.w3.org/2000/svg">
<path fill-rule="evenodd" clip-rule="evenodd" d="M13 17H11V21C11 21.5523 10.5523 22 10 22C9.44772 22 9 21.5523 9 21V17C7.89543 17 7 16.1046 7 15V10C7 9.44772 7.44772 9 8 9H16C16.5523 9 17 9.44772 17 10V15C17 16.1046 16.1046 17 15 17V21C15 21.5523 14.5523 22 14 22C13.4477 22 13 21.5523 13 21V17Z" fill="black"/>
<rect x="18" y="9" width="2" height="7" rx="1" fill="black"/>
<rect x="4" y="9" width="2" height="7" rx="1" fill="black"/>
<path fill-rule="evenodd" clip-rule="evenodd" d="M9.70711 4.29289C9.74016 4.32595 9.77041 4.36074 9.79787 4.39697C10.3971 4.1521 11.1225 4 12 4C12.8775 4 13.6029 4.1521 14.2021 4.39697C14.2296 4.36074 14.2598 4.32595 14.2929 4.29289L15.2929 3.29289C15.6834 2.90237 16.3166 2.90237 16.7071 3.29289C17.0976 3.68342 17.0976 4.31658 16.7071 4.70711L15.8491 5.56514C16.2465 6.01684 16.5105 6.49963 16.684 6.9152C16.9158 7.47024 16.4687 8 15.8672 8H8.13278C7.53128 8 7.08415 7.47024 7.31597 6.9152C7.48954 6.49963 7.75352 6.01684 8.15093 5.56514L7.29289 4.70711C6.90237 4.31658 6.90237 3.68342 7.29289 3.29289C7.68342 2.90237 8.31658 2.90237 8.70711 3.29289L9.70711 4.29289ZM9.5 7C9.77614 7 10 6.77614 10 6.5C10 6.22386 9.77614 6 9.5 6C9.22386 6 9 6.22386 9 6.5C9 6.77614 9.22386 7 9.5 7ZM15 6.5C15 6.77614 14.7761 7 14.5 7C14.2239 7 14 6.77614 14 6.5C14 6.22386 14.2239 6 14.5 6C14.7761 6 15 6.22386 15 6.5Z" fill="black"/>
</svg>
