<svg width="16" height="16" viewBox="0 0 16 16" fill="none" xmlns="http://www.w3.org/2000/svg">
<g clip-path="url(#clip0_778_3036)">
<circle cx="8" cy="8" r="7.5" fill="#35363A" stroke="#EDEDED"/>
<mask id="path-2-outside-1_778_3036" maskUnits="userSpaceOnUse" x="2" y="1" width="15" height="12" fill="black">
<rect fill="white" x="2" y="1" width="15" height="12"/>
<path fill-rule="evenodd" clip-rule="evenodd" d="M14.7581 2.82075C15.2729 3.24997 15.3422 4.01522 14.913 4.52999L9.18143 11.4038C9.00544 11.6149 8.77295 11.7511 8.52439 11.8087C8.12725 12.0163 7.62989 11.9951 7.24397 11.7124L3.49644 8.96687C2.95578 8.57077 2.83859 7.81137 3.23469 7.27071L3.52142 6.87933C3.91753 6.33866 4.67692 6.22147 5.21759 6.61757L7.5134 8.29953L12.4022 2.43642C12.8315 1.92166 13.5967 1.85231 14.1115 2.28154L14.7581 2.82075Z"/>
</mask>
<path fill-rule="evenodd" clip-rule="evenodd" d="M14.7581 2.82075C15.2729 3.24997 15.3422 4.01522 14.913 4.52999L9.18143 11.4038C9.00544 11.6149 8.77295 11.7511 8.52439 11.8087C8.12725 12.0163 7.62989 11.9951 7.24397 11.7124L3.49644 8.96687C2.95578 8.57077 2.83859 7.81137 3.23469 7.27071L3.52142 6.87933C3.91753 6.33866 4.67692 6.22147 5.21759 6.61757L7.5134 8.29953L12.4022 2.43642C12.8315 1.92166 13.5967 1.85231 14.1115 2.28154L14.7581 2.82075Z" fill="#FFA56D"/>
<path d="M14.913 4.52999L15.6811 5.1704L15.6811 5.17039L14.913 4.52999ZM14.7581 2.82075L14.1177 3.58878L14.1177 3.58878L14.7581 2.82075ZM9.18143 11.4038L9.94946 12.0442L9.94947 12.0442L9.18143 11.4038ZM8.52439 11.8087L8.29851 10.8345L8.17417 10.8634L8.06106 10.9225L8.52439 11.8087ZM7.24397 11.7124L6.65298 12.5191L6.65298 12.5191L7.24397 11.7124ZM3.49644 8.96687L2.90545 9.77355L2.90545 9.77355L3.49644 8.96687ZM3.23469 7.27071L4.04137 7.8617L4.04137 7.8617L3.23469 7.27071ZM3.52142 6.87933L2.71475 6.28834L2.71475 6.28834L3.52142 6.87933ZM5.21759 6.61757L4.6266 7.42425L4.6266 7.42425L5.21759 6.61757ZM7.5134 8.29953L6.92241 9.10621L7.68 9.66123L8.28143 8.93994L7.5134 8.29953ZM12.4022 2.43642L13.1703 3.07683L13.1703 3.07683L12.4022 2.43642ZM14.1115 2.28154L14.7519 1.5135L14.7519 1.5135L14.1115 2.28154ZM15.6811 5.17039C16.464 4.23146 16.3375 2.83563 15.3985 2.05271L14.1177 3.58878C14.2083 3.66432 14.2205 3.79899 14.145 3.88958L15.6811 5.17039ZM9.94947 12.0442L15.6811 5.1704L14.145 3.88958L8.4134 10.7634L9.94947 12.0442ZM8.75027 12.7828C9.20371 12.6777 9.62917 12.4283 9.94946 12.0442L8.4134 10.7634C8.3817 10.8014 8.34218 10.8244 8.29851 10.8345L8.75027 12.7828ZM8.06106 10.9225C7.9888 10.9603 7.90168 10.9546 7.83496 10.9057L6.65298 12.5191C7.3581 13.0356 8.26571 13.0724 8.98773 12.6949L8.06106 10.9225ZM7.83496 10.9057L4.08743 8.16019L2.90545 9.77355L6.65298 12.5191L7.83496 10.9057ZM4.08743 8.16019C3.99229 8.09049 3.97166 7.95684 4.04137 7.8617L2.42801 6.67972C1.70551 7.6659 1.91927 9.05105 2.90545 9.77355L4.08743 8.16019ZM4.04137 7.8617L4.3281 7.47031L2.71475 6.28834L2.42801 6.67972L4.04137 7.8617ZM4.3281 7.47032C4.39781 7.37517 4.53145 7.35454 4.6266 7.42425L5.80858 5.81089C4.8224 5.0884 3.43724 5.30216 2.71475 6.28834L4.3281 7.47032ZM4.6266 7.42425L6.92241 9.10621L8.10439 7.49285L5.80858 5.81089L4.6266 7.42425ZM11.6342 1.79601L6.74536 7.65912L8.28143 8.93994L13.1703 3.07683L11.6342 1.79601ZM14.7519 1.5135C13.8129 0.73059 12.4171 0.857072 11.6342 1.79601L13.1703 3.07683C13.2458 2.98624 13.3805 2.97403 13.4711 3.04957L14.7519 1.5135ZM15.3985 2.05271L14.7519 1.5135L13.4711 3.04957L14.1177 3.58878L15.3985 2.05271Z" fill="#35363A" mask="url(#path-2-outside-1_778_3036)"/>
</g>
<defs>
<clipPath id="clip0_778_3036">
<rect width="16" height="16" fill="white"/>
</clipPath>
</defs>
</svg>
