<svg width="60" height="60" viewBox="0 0 60 60" fill="none" xmlns="http://www.w3.org/2000/svg">
<g clip-path="url(#clip0_364_637)">
<path d="M0 11.25C0 5.0368 5.0368 0 11.25 0H48.75C54.9632 0 60 5.0368 60 11.25V48.75C60 54.9632 54.9632 60 48.75 60H11.25C5.0368 60 0 54.9632 0 48.75V11.25Z" fill="#D3E0E5"/>
<path d="M0 11.25C0 5.0368 5.0368 0 11.25 0H48.75C54.9632 0 60 5.0368 60 11.25V48.75C60 54.9632 54.9632 60 48.75 60H11.25C5.0368 60 0 54.9632 0 48.75V11.25Z" fill="#D3E0E5"/>
<path opacity="0.3" fill-rule="evenodd" clip-rule="evenodd" d="M29.7656 0H30.2344H41.25H41.7188H48.75C54.9632 0 60 5.0368 60 11.25V18.2812V18.75V29.7656V30.2344V41.25V41.7188V48.75C60 54.9632 54.9632 60 48.75 60H41.7188H41.25H30.2344H29.7656H18.75H18.2812H11.25C5.0368 60 0 54.9632 0 48.75V41.7188V41.25V30.2344V29.7656V18.75V18.2812V11.25C0 5.0368 5.0368 0 11.25 0H18.2812H18.75H29.7656ZM0.9375 18.75V29.7656H3.28125V18.75H0.9375ZM0.9375 30.2344V41.25H3.28125V30.2344H0.9375ZM0.9375 41.7188V48.75C0.9375 51.2355 1.81678 53.5156 3.28125 55.2962V41.7188H0.9375ZM3.79411 55.8744C3.77936 55.859 3.76465 55.8435 3.75 55.828V41.7188H5.98156C7.25303 44.3198 8.93457 46.6838 10.942 48.7266L3.79411 55.8744ZM4.17199 56.25C4.15647 56.2353 4.14099 56.2206 4.12556 56.2059L11.2734 49.058C13.3162 51.0654 15.6802 52.747 18.2812 54.0184V56.25H4.17199ZM4.70379 56.7188H18.2812V59.0625H11.25C8.76453 59.0625 6.48443 58.1832 4.70379 56.7188ZM18.75 59.0625H29.7656V56.7188H18.75V59.0625ZM30.2344 59.0625H41.25V56.7188H30.2344V59.0625ZM41.7188 59.0625H48.75C51.2355 59.0625 53.5156 58.1832 55.2962 56.7188H41.7188V59.0625ZM55.8744 56.2059C55.859 56.2206 55.8435 56.2353 55.828 56.25H41.7188V54.0184C44.3198 52.747 46.6838 51.0654 48.7266 49.058L55.8744 56.2059ZM56.25 55.828C56.2353 55.8435 56.2206 55.859 56.2059 55.8744L49.058 48.7266C51.0654 46.6838 52.747 44.3198 54.0184 41.7188H56.25V55.828ZM56.7188 55.2962V41.7188H59.0625V48.75C59.0625 51.2355 58.1832 53.5156 56.7188 55.2962ZM59.0625 41.25V30.2344H56.7188V41.25H59.0625ZM59.0625 29.7656V18.75H56.7188V29.7656H59.0625ZM59.0625 18.2812V11.25C59.0625 8.76453 58.1832 6.48443 56.7188 4.70379V18.2812H59.0625ZM56.2059 4.12556C56.2206 4.14099 56.2353 4.15647 56.25 4.17199V18.2812H54.0184C52.747 15.6802 51.0654 13.3162 49.058 11.2734L56.2059 4.12556ZM55.828 3.75C55.8435 3.76465 55.859 3.77936 55.8744 3.79411L48.7266 10.942C46.6838 8.93457 44.3198 7.25303 41.7188 5.98156V3.75H55.828ZM55.2962 3.28125H41.7188V0.9375H48.75C51.2355 0.9375 53.5156 1.81678 55.2962 3.28125ZM41.25 0.9375H30.2344V3.28125H41.25V0.9375ZM29.7656 0.9375H18.75V3.28125H29.7656V0.9375ZM18.2812 0.9375H11.25C8.76453 0.9375 6.48443 1.81678 4.70379 3.28125H18.2812V0.9375ZM4.12556 3.79411C4.14099 3.77936 4.15647 3.76465 4.17199 3.75H18.2812V5.98156C15.6802 7.25303 13.3162 8.93457 11.2734 10.942L4.12556 3.79411ZM3.75 4.17199C3.76465 4.15647 3.77936 4.14099 3.79411 4.12556L10.942 11.2734C8.93457 13.3162 7.25302 15.6802 5.98156 18.2812H3.75V4.17199ZM3.28125 4.70379V18.2812H0.9375V11.25C0.9375 8.76453 1.81678 6.48443 3.28125 4.70379ZM41.25 54.2419V56.25H35.009C37.1953 55.8353 39.2873 55.1543 41.25 54.2419ZM18.75 54.2419C20.7127 55.1543 22.8047 55.8353 24.991 56.25H18.75V54.2419ZM56.25 41.25V35.009C55.8353 37.1953 55.1543 39.2873 54.2419 41.25H56.25ZM56.25 24.991V18.75H54.2419C55.1543 20.7127 55.8353 22.8047 56.25 24.991ZM29.7656 56.249C25.826 56.2145 22.0935 55.3122 18.75 53.7239V41.7188H19.1983C21.9848 44.2886 25.6901 45.8771 29.7656 45.9358V56.249ZM18.2812 41.25V40.8017C15.7114 38.0152 14.1229 34.3099 14.0642 30.2344H3.75102C3.78548 34.174 4.68781 37.9065 6.27612 41.25H18.2812ZM18.8975 40.7711C18.848 40.7201 18.7988 40.6687 18.75 40.617V33.2921C19.2862 35.1276 20.2595 36.7767 21.5495 38.119L18.8975 40.7711ZM18.2812 40.0976V30.2344H14.533C14.5889 34.0018 15.9917 37.4429 18.2812 40.0976ZM21.5495 21.881C20.2595 23.2233 19.2862 24.8724 18.75 26.7079V19.383C18.7988 19.3313 18.848 19.2799 18.8975 19.2289L21.5495 21.881ZM18.2812 29.7656V19.9024C15.9917 22.5571 14.5889 25.9982 14.533 29.7656H18.2812ZM18.2812 19.1983V18.75H6.27612C4.68781 22.0935 3.78548 25.826 3.75102 29.7656H14.0642C14.1229 25.6901 15.7114 21.9848 18.2812 19.1983ZM19.1983 18.2812H18.75V6.27612C22.0935 4.68781 25.826 3.78548 29.7656 3.75102V14.0642C25.6901 14.1229 21.9848 15.7114 19.1983 18.2812ZM18.2812 17.9498V6.50455C15.808 7.74053 13.5572 9.35554 11.6049 11.2735L18.2812 17.9498ZM24.991 3.75C22.8047 4.16466 20.7127 4.84569 18.75 5.75807V3.75H24.991ZM18.2812 53.4954V42.0502L11.6049 48.7265C13.5572 50.6445 15.808 52.2595 18.2812 53.4954ZM41.7188 53.4954C44.192 52.2595 46.4428 50.6445 48.3951 48.7265L41.7188 42.0502V53.4954ZM41.25 41.7188V53.7239C37.9065 55.3122 34.174 56.2145 30.2344 56.249V45.9358C34.3099 45.8771 38.0152 44.2886 40.8017 41.7188H41.25ZM41.7188 41.25V40.8017C44.2886 38.0152 45.8771 34.3099 45.9358 30.2344H56.249C56.2145 34.174 55.3122 37.9065 53.7239 41.25H41.7188ZM41.7188 40.0976V30.2344H45.467C45.4111 34.0018 44.0083 37.4429 41.7188 40.0976ZM41.25 33.2921V40.617C41.2012 40.6687 41.152 40.7201 41.1025 40.7711L38.4505 38.119C39.7405 36.7767 40.7138 35.1276 41.25 33.2921ZM41.7188 29.7656H45.467C45.4111 25.9982 44.0083 22.5571 41.7188 19.9024V29.7656ZM41.25 19.383V26.7079C40.7138 24.8724 39.7405 23.2233 38.4505 21.881L41.1025 19.2289C41.152 19.2799 41.2012 19.3313 41.25 19.383ZM41.7188 19.1983V18.75H53.7239C55.3122 22.0935 56.2145 25.826 56.249 29.7656H45.9358C45.8771 25.6901 44.2886 21.9848 41.7188 19.1983ZM41.7188 17.9498V6.50455C44.192 7.74053 46.4428 9.35554 48.3951 11.2735L41.7188 17.9498ZM41.25 6.27612V18.2812H40.8017C38.0152 15.7114 34.3099 14.1229 30.2344 14.0642V3.75102C34.174 3.78548 37.9065 4.68781 41.25 6.27612ZM41.25 3.75V5.75807C39.2873 4.84569 37.1953 4.16466 35.009 3.75H41.25ZM19.9024 18.2812C22.5571 15.9917 25.9982 14.5889 29.7656 14.533V18.2812H19.9024ZM30.2344 14.533V18.2812H40.0976C37.4429 15.9917 34.0018 14.5889 30.2344 14.533ZM22.2125 21.881C24.1814 19.992 26.836 18.8123 29.7656 18.7524V29.4342L22.2125 21.881ZM30.2344 18.7524V29.4342L37.7875 21.881C35.8186 19.992 33.164 18.8123 30.2344 18.7524ZM22.2125 38.119L29.7656 30.5658V41.2476C26.836 41.1877 24.1814 40.008 22.2125 38.119ZM30.2344 30.5658V41.2476C33.164 41.1877 35.8186 40.008 37.7875 38.119L30.2344 30.5658ZM19.9024 41.7188H29.7656V45.467C25.9982 45.4111 22.5571 44.0083 19.9024 41.7188ZM30.2344 41.7188V45.467C34.0018 45.4111 37.4429 44.0083 40.0976 41.7188H30.2344ZM3.75 41.25H5.75807C4.84569 39.2873 4.16466 37.1953 3.75 35.009V41.25ZM3.75 24.991C4.16466 22.8047 4.84569 20.7127 5.75807 18.75H3.75V24.991ZM6.50455 18.2812H17.9498L11.2735 11.6049C9.35554 13.5572 7.74053 15.808 6.50455 18.2812ZM19.2289 18.8975C19.2799 18.848 19.3313 18.7988 19.383 18.75H26.7079C24.8724 19.2862 23.2233 20.2595 21.881 21.5495L19.2289 18.8975ZM40.617 18.75H33.2921C35.1276 19.2862 36.7767 20.2595 38.119 21.5495L40.7711 18.8975C40.7201 18.848 40.6687 18.7988 40.617 18.75ZM48.7265 11.6049C50.6445 13.5572 52.2595 15.808 53.4954 18.2812H42.0502L48.7265 11.6049ZM40.617 41.25C40.6687 41.2012 40.7201 41.152 40.7711 41.1025L38.119 38.4505C36.7767 39.7405 35.1276 40.7138 33.2921 41.25H40.617ZM26.7079 41.25H19.383C19.3313 41.2012 19.2799 41.152 19.2289 41.1025L21.881 38.4505C23.2233 39.7405 24.8724 40.7138 26.7079 41.25ZM6.50456 41.7188C7.74053 44.192 9.35554 46.4428 11.2735 48.3951L17.9498 41.7188H6.50456ZM42.0502 41.7188H53.4954C52.2595 44.192 50.6445 46.4428 48.7265 48.3951L42.0502 41.7188ZM21.881 22.2125C19.992 24.1814 18.8123 26.836 18.7524 29.7656H29.4342L21.881 22.2125ZM18.7524 30.2344C18.8123 33.164 19.992 35.8186 21.881 37.7875L29.4342 30.2344H18.7524ZM38.119 37.7875C40.008 35.8186 41.1877 33.164 41.2476 30.2344H30.5658L38.119 37.7875ZM41.2476 29.7656C41.1877 26.836 40.008 24.1814 38.119 22.2125L30.5658 29.7656H41.2476Z" fill="#FF0000"/>
<path d="M0 11C0 4.92487 4.92487 0 11 0H49C55.0751 0 60 4.92487 60 11V49C60 55.0751 55.0751 60 49 60H11C4.92487 60 0 55.0751 0 49V11Z" fill="#D48251"/>
<path fill-rule="evenodd" clip-rule="evenodd" d="M49 1H11C5.47715 1 1 5.47715 1 11V49C1 54.5228 5.47715 59 11 59H49C54.5228 59 59 54.5228 59 49V11C59 5.47715 54.5228 1 49 1ZM11 0C4.92487 0 0 4.92487 0 11V49C0 55.0751 4.92487 60 11 60H49C55.0751 60 60 55.0751 60 49V11C60 4.92487 55.0751 0 49 0H11Z" fill="#5A5A5A"/>
<path fill-rule="evenodd" clip-rule="evenodd" d="M11 5C4.92487 5 0 9.92487 0 16V49C0 55.0751 4.92487 60 11 60H49C55.0751 60 60 55.0751 60 49V16C60 9.92487 55.0751 5 49 5H11Z" fill="#D1B85E"/>
<path fill-rule="evenodd" clip-rule="evenodd" d="M11 6C5.47715 6 1 10.4772 1 16V49C1 54.5228 5.47715 59 11 59H49C54.5228 59 59 54.5228 59 49V16C59 10.4772 54.5228 6 49 6H11ZM0 16C0 9.92487 4.92487 5 11 5H49C55.0751 5 60 9.92487 60 16V49C60 55.0751 55.0751 60 49 60H11C4.92487 60 0 55.0751 0 49V16Z" fill="#5A5A5A"/>
<path fill-rule="evenodd" clip-rule="evenodd" d="M11 11C4.92487 11 0 15.9248 0 22V49C0 55.0751 4.92487 60 11 60H49C55.0751 60 60 55.0751 60 49V22C60 15.9249 55.0751 11 49 11H11Z" fill="#F4F4F4"/>
<path fill-rule="evenodd" clip-rule="evenodd" d="M11 12C5.47715 12 1 16.4771 1 22V49C1 54.5228 5.47715 59 11 59H49C54.5228 59 59 54.5228 59 49V22C59 16.4772 54.5228 12 49 12H11ZM0 22C0 15.9248 4.92487 11 11 11H49C55.0751 11 60 15.9249 60 22V49C60 55.0751 55.0751 60 49 60H11C4.92487 60 0 55.0751 0 49V22Z" fill="#5A5A5A"/>
<path d="M41 33.7485C41 40.6521 35.4036 46.2485 28.5 46.2485C21.5964 46.2485 16 40.6521 16 33.7485C16 26.845 21.5964 21.2485 28.5 21.2485C35.4036 21.2485 41 26.845 41 33.7485Z" fill="#5A5A5A"/>
<path fill-rule="evenodd" clip-rule="evenodd" d="M28.5 45.2485C34.8513 45.2485 40 40.0998 40 33.7485C40 27.3973 34.8513 22.2485 28.5 22.2485C22.1487 22.2485 17 27.3973 17 33.7485C17 40.0998 22.1487 45.2485 28.5 45.2485ZM28.5 46.2485C35.4036 46.2485 41 40.6521 41 33.7485C41 26.845 35.4036 21.2485 28.5 21.2485C21.5964 21.2485 16 26.845 16 33.7485C16 40.6521 21.5964 46.2485 28.5 46.2485Z" fill="#5A5A5A"/>
<path fill-rule="evenodd" clip-rule="evenodd" d="M42.9385 20.8448C44.4832 22.1328 44.6913 24.4292 43.4033 25.9738L31.8352 39.8473C31.5895 40.1419 31.3071 40.388 31.0002 40.5843C29.8648 41.8295 27.9494 42.0437 26.5592 41.0252L18.8585 35.3835C17.37 34.293 17.0473 32.2022 18.1378 30.7137C19.2284 29.2251 21.3191 28.9025 22.8077 29.993L27.6258 33.5228L37.8095 21.3096C39.0975 19.7649 41.3939 19.5568 42.9385 20.8448Z" fill="#27F0DE"/>
<path fill-rule="evenodd" clip-rule="evenodd" d="M30.3502 39.813L30.4614 39.7419C30.683 39.6001 30.8879 39.4219 31.0672 39.2068L42.6353 25.3334C43.5696 24.2129 43.4186 22.5472 42.2981 21.6129C41.1776 20.6785 39.5119 20.8295 38.5776 21.95L27.7924 34.8845L22.2167 30.7997C21.1737 30.0355 19.7087 30.2616 18.9445 31.3047L18.1378 30.7137C19.2284 29.2251 21.3191 28.9025 22.8077 29.993L27.6258 33.5228L37.8095 21.3096C39.0975 19.7649 41.3939 19.5568 42.9385 20.8448C44.4832 22.1328 44.6913 24.4292 43.4033 25.9738L31.8352 39.8473C31.5895 40.1419 31.3071 40.388 31.0002 40.5843C29.8648 41.8295 27.9494 42.0437 26.5592 41.0252L18.8585 35.3835L19.4495 34.5768L27.1502 40.2185C28.1238 40.9318 29.4664 40.7823 30.2612 39.9105L30.3502 39.813ZM18.8585 35.3835C17.37 34.293 17.0473 32.2022 18.1378 30.7137L18.9445 31.3047C18.1804 32.3477 18.4065 33.8127 19.4495 34.5768L18.8585 35.3835Z" fill="#5A5A5A"/>
<path fill-rule="evenodd" clip-rule="evenodd" d="M49 1H11C5.47715 1 1 5.47715 1 11V49C1 54.5228 5.47715 59 11 59H49C54.5228 59 59 54.5228 59 49V11C59 5.47715 54.5228 1 49 1ZM11 0C4.92487 0 0 4.92487 0 11V49C0 55.0751 4.92487 60 11 60H49C55.0751 60 60 55.0751 60 49V11C60 4.92487 55.0751 0 49 0H11Z" fill="#5A5A5A"/>
<path d="M70.2514 23.2293C68.8244 28.0575 65.4267 36.8127 58.8132 40.565C49.4433 45.8835 39.2401 46.1859 36.7354 46.7353C34.2319 47.2849 32.2316 47.3935 32.8591 46.2861L33.4862 45.1798C33.9532 45.0976 34.3985 44.8915 34.7551 44.586C33.4714 45.1159 31.8252 44.6299 31.0337 43.4876C30.1673 42.235 30.4545 39.0016 32.5734 39.3418C32.9511 39.4017 33.2804 39.633 33.6504 39.7383C34.0188 39.8445 34.5059 39.7598 34.627 39.4047C33.4672 39.389 32.3916 38.415 32.2801 37.2796C32.1423 35.8615 33.3269 34.6635 34.5774 33.9595C37.8073 32.1381 41.7628 32.2305 45.451 31.6413C48.9604 31.0807 52.405 29.8287 55.1414 27.6215C57.8777 25.4144 59.8486 22.1876 60.0928 18.7003C60.0901 18.746 64.1462 19.8482 64.6095 20.0293C66.7196 20.8515 68.7572 21.8236 70.2514 23.2293Z" fill="#F3E8D1"/>
<path d="M72.6413 28.8583C72.6242 31.8902 71.1118 34.7034 69.3441 37.1675C69.1895 37.3825 69.0329 37.5955 68.8744 37.8067C61.9726 46.9856 50.5495 52.9163 38.868 52.5534C37.8544 52.5229 36.8139 52.4387 35.8946 52.007C34.9768 51.5745 34.1952 50.7223 34.1323 49.7281C35.4758 50.0088 36.9529 49.4159 37.6995 48.2978C36.3732 49.0423 34.7183 49.4753 33.3029 48.8724C32.436 48.5036 30.4929 45.7817 32.1187 45.2566C32.3937 45.1673 32.6947 45.2172 32.9859 45.22C33.1535 45.2232 33.3354 45.1093 33.5002 45.0802L34.0002 45.0802C34.0002 45.0802 33.4114 45.5802 33.5002 46.0802C33.589 46.5802 33.8313 47.257 36.7355 46.7352C39.2402 46.1859 49.4434 45.8834 58.8133 40.5649C65.4268 36.8126 68.8245 28.0575 70.2515 23.2293C71.7135 24.6022 72.6559 26.391 72.6413 28.8583Z" fill="#EBCAB3"/>
<path d="M72.6218 32.5003C72.3873 33.2846 71.9747 34.0335 71.5284 34.7215C71.4899 34.8366 71.449 34.9511 71.4018 35.061C70.77 36.5247 69.7579 37.7841 68.7243 38.989C67.6767 40.2096 66.5845 41.3999 65.487 42.5785C64.9102 43.1981 64.3238 43.8109 63.7299 44.4151C63.1866 44.9683 62.6295 45.4833 61.9916 45.9314C61.3762 46.3652 60.7306 46.7555 60.0882 47.1481C59.4602 47.5314 58.8564 47.9486 58.2268 48.3288C55.5736 49.9273 52.6112 50.991 49.6354 51.8706C46.5338 52.7864 43.3054 53.3906 40.0476 53.409C39.2277 53.4137 38.4064 53.3854 37.5906 53.2944C37.1776 53.2487 36.768 53.1838 36.3607 53.1033C35.9729 53.0263 35.5731 52.9468 35.2012 52.8106C34.5881 52.5853 34.0525 52.1449 33.7198 51.5903C33.394 51.0466 33.3852 50.4193 33.0927 49.8885C32.9471 49.6253 32.8249 49.6413 32.5146 49.5016C31.8721 49.2142 31.1972 48.7706 30.8503 48.1461C30.5599 47.6248 30.5169 47.0082 30.546 46.4242C30.5402 46.4098 30.5355 46.3958 30.5343 46.3791C30.5339 46.3764 30.5334 46.3737 30.5341 46.3714C30.533 46.3711 30.5333 46.3699 30.5329 46.3673C30.5302 46.3387 30.5306 46.325 30.5338 46.2983C30.5365 46.2689 30.5408 46.2388 30.5447 46.2098C30.5516 46.1301 30.5476 46.052 30.5514 45.9739C30.5568 45.8824 30.5645 45.7916 30.5785 45.7015C30.5795 45.6943 30.5869 45.6664 30.592 45.6541C30.5887 45.6317 30.5862 45.6108 30.5868 45.5883C30.5904 45.5604 30.5947 45.5341 30.6006 45.507C30.608 45.4627 30.6165 45.4187 30.6251 45.3748C30.7257 44.8711 30.8916 44.8838 30.5561 44.4618L30.49 44.3769C32.1395 44.8149 33.4387 45.1675 33.4852 45.1795C33.3203 45.2086 33.1536 45.2233 32.986 45.2201C32.6947 45.2174 32.3937 45.1675 32.1188 45.2567C30.4929 45.7819 32.4361 48.5038 33.303 48.8725C34.7183 49.4754 36.3733 49.0425 37.6996 48.2979C36.953 49.416 35.4758 50.009 34.1324 49.7282C34.1953 50.7225 34.9769 51.5746 35.8946 52.0071C36.8139 52.4388 37.8545 52.523 38.8681 52.5535C50.5496 52.9164 61.9727 46.9858 68.8744 37.8068C69.033 37.5957 69.1896 37.3826 69.3442 37.1677C71.1119 34.7036 72.6243 31.8903 72.6413 28.8584C72.6559 26.3911 71.7136 24.6024 70.2516 23.2294C70.3629 22.8562 70.4605 22.5063 70.548 22.1848C71.0224 22.5822 71.4592 23.0258 71.8291 23.519C72.3058 24.1563 72.6326 24.8577 72.833 25.6216C73.0296 26.373 73.0901 27.1525 73.0922 27.925C73.0935 28.6961 73.0768 29.4753 73.0184 30.2441C72.9752 30.8237 72.896 31.4072 72.754 31.9736C72.7219 32.155 72.6714 32.3331 72.6218 32.5003Z" fill="#5A5A5A"/>
<path d="M70.2514 23.229C68.7571 21.8233 66.7195 20.8512 64.6095 20.029C64.1461 19.8478 60.09 18.7457 60.0927 18.6999C59.8486 22.1873 57.8776 25.414 55.1413 27.6212C52.405 29.8283 48.9603 31.0803 45.4509 31.6409C41.7627 32.2301 37.8072 32.1378 34.5774 33.9592C33.3268 34.6632 32.1422 35.8612 32.28 37.2793C32.3916 38.4146 35.3404 39.3258 36.5002 39.3414C36.379 39.6965 36.0002 40.0801 35.5002 40.0801C33.5002 40.0801 32.9277 39.8065 32.55 39.7465C30.4311 39.4063 30.1673 42.2347 31.0337 43.4873C31.8251 44.6296 33.4713 45.1156 34.755 44.5857C34.3984 44.8912 33.9532 45.0973 33.4861 45.1794L33.4849 45.1791C33.4385 45.1671 32.1393 44.8145 30.4898 44.3765C30.2837 44.1132 30.0955 43.8379 29.9408 43.5416C29.6 42.8976 29.4003 42.1767 29.4324 41.4513C29.4855 40.2792 30.3585 38.8177 31.6364 38.6612C29.3672 35.0128 34.2284 32.5621 37.1287 31.7963C38.5217 31.4277 39.9625 31.2439 41.4068 31.2099C42.7789 31.176 44.1348 31.0954 45.4799 30.8265C46.834 30.5577 48.1317 30.1191 49.3852 29.5621C50.722 28.9694 52.0279 28.3067 53.2631 27.5324C54.4696 26.7756 55.6196 25.9031 56.5778 24.8535C57.0623 24.3235 57.5067 23.7532 57.8834 23.1442C58.1626 22.6949 58.376 22.2377 58.5431 21.7396C58.6958 21.2873 58.8321 20.83 58.9927 20.3814C59.0343 20.2647 59.0808 20.1445 59.1303 20.0353C59.1855 19.846 59.2396 19.6564 59.2854 19.4642C59.3578 19.1619 59.3794 18.8576 59.3998 18.5366C59.4088 18.3883 59.4171 18.2423 59.4393 18.0968C59.4466 18.0487 59.4627 17.9971 59.4808 17.9473C59.3808 17.8431 59.4121 17.6149 59.5962 17.6434C59.7192 17.6616 59.8417 17.6734 59.9594 17.7127C60.0798 17.7515 60.1978 17.7984 60.3178 17.8384C60.563 17.9187 60.8123 17.9902 61.0621 18.0555C61.5533 18.1849 62.0498 18.297 62.5427 18.4207C63.5684 18.6803 64.5513 19.0525 65.5276 19.458C66.4002 19.821 67.2588 20.2161 68.1019 20.6404C68.8259 21.0049 69.5287 21.3879 70.1727 21.881C70.3005 21.9788 70.4248 22.0793 70.5478 22.1844C70.4603 22.5059 70.3627 22.8558 70.2514 23.229Z" fill="#5A5A5A"/>
<path fill-rule="evenodd" clip-rule="evenodd" d="M49 1H11C5.47715 1 1 5.47715 1 11V49C1 54.5228 5.47715 59 11 59H49C54.5228 59 59 54.5228 59 49V11C59 5.47715 54.5228 1 49 1ZM11 0C4.92487 0 0 4.92487 0 11V49C0 55.0751 4.92487 60 11 60H49C55.0751 60 60 55.0751 60 49V11C60 4.92487 55.0751 0 49 0H11Z" fill="#5A5A5A"/>
</g>
<defs>
<clipPath id="clip0_364_637">
<rect width="60" height="60" fill="white"/>
</clipPath>
</defs>
</svg>
